<mxfile host="app.diagrams.net" modified="2022-01-02T04:11:19.804Z" agent="5.0 (Windows NT 10.0; Win64; x64) AppleWebKit/537.36 (KHTML, like Gecko) Chrome/96.0.4664.110 Safari/537.36" etag="2mnh7Iw82_1r7aUTuthr" version="16.1.0" type="github">
  <diagram id="cc3kKAvX6N6higTfpHKX" name="Page-1">
    <mxGraphModel dx="782" dy="1549" grid="1" gridSize="10" guides="1" tooltips="1" connect="1" arrows="1" fold="1" page="1" pageScale="1" pageWidth="827" pageHeight="1169" math="0" shadow="0">
      <root>
        <mxCell id="0" />
        <mxCell id="1" parent="0" />
        <mxCell id="-o3gMdgeUypH5bBFZFpi-7" style="edgeStyle=orthogonalEdgeStyle;rounded=0;orthogonalLoop=1;jettySize=auto;html=1;exitX=0;exitY=0;exitDx=0;exitDy=0;" edge="1" parent="1" source="-o3gMdgeUypH5bBFZFpi-1">
          <mxGeometry relative="1" as="geometry">
            <mxPoint x="200" y="-20" as="targetPoint" />
          </mxGeometry>
        </mxCell>
        <mxCell id="-o3gMdgeUypH5bBFZFpi-1" value="" style="whiteSpace=wrap;html=1;aspect=fixed;" vertex="1" parent="1">
          <mxGeometry x="200" width="880" height="880" as="geometry" />
        </mxCell>
        <mxCell id="-o3gMdgeUypH5bBFZFpi-2" value="&lt;br&gt;&lt;br&gt;&lt;br&gt;imooc-security&lt;br&gt;&lt;pre style=&quot;background-color: rgb(255 , 255 , 255) ; font-family: &amp;#34;jetbrains mono&amp;#34; , monospace ; font-size: 9.8pt&quot;&gt;&lt;span style=&quot;background-color: #efefef&quot;&gt;&amp;lt;&lt;/span&gt;&lt;span style=&quot;color: #000080 ; background-color: #efefef ; font-weight: bold&quot;&gt;packaging&lt;/span&gt;&lt;span style=&quot;background-color: #efefef&quot;&gt;&amp;gt;&lt;/span&gt;pom&lt;span style=&quot;background-color: #efefef&quot;&gt;&amp;lt;/&lt;/span&gt;&lt;span style=&quot;color: #000080 ; background-color: #efefef ; font-weight: bold&quot;&gt;packaging&lt;/span&gt;&lt;span style=&quot;background-color: #efefef&quot;&gt;&amp;gt;&lt;/span&gt;&lt;/pre&gt;&lt;pre style=&quot;background-color: rgb(255 , 255 , 255) ; font-family: &amp;#34;jetbrains mono&amp;#34; , monospace ; font-size: 9.8pt&quot;&gt;&lt;pre style=&quot;font-family: &amp;#34;jetbrains mono&amp;#34; , monospace ; font-size: 9.8pt&quot;&gt;&lt;span style=&quot;background-color: #efefef&quot;&gt;&amp;lt;&lt;/span&gt;&lt;span style=&quot;color: #000080 ; background-color: #efefef ; font-weight: bold&quot;&gt;modules&lt;/span&gt;&lt;span style=&quot;background-color: #efefef&quot;&gt;&amp;gt;chlid modules&lt;/span&gt;&lt;span style=&quot;background-color: #efefef&quot;&gt;&amp;lt;/&lt;/span&gt;&lt;span style=&quot;color: #000080 ; background-color: #efefef ; font-weight: bold&quot;&gt;modules&lt;/span&gt;&lt;span style=&quot;background-color: #efefef&quot;&gt;&amp;gt;&lt;/span&gt;&lt;/pre&gt;&lt;pre style=&quot;font-family: &amp;#34;jetbrains mono&amp;#34; , monospace ; font-size: 9.8pt&quot;&gt;&lt;pre style=&quot;font-family: &amp;#34;jetbrains mono&amp;#34; , monospace ; font-size: 9.8pt&quot;&gt;&lt;span style=&quot;background-color: #efefef&quot;&gt;&amp;lt;&lt;/span&gt;&lt;span style=&quot;color: #000080 ; background-color: #efefef ; font-weight: bold&quot;&gt;properties&lt;/span&gt;&lt;span style=&quot;background-color: #efefef&quot;&gt;&amp;gt;&lt;/span&gt;&lt;br&gt;    &lt;span style=&quot;background-color: #efefef&quot;&gt;&amp;lt;&lt;/span&gt;&lt;span style=&quot;color: #000080 ; background-color: #efefef ; font-weight: bold&quot;&gt;imooc.security.version&lt;/span&gt;&lt;span style=&quot;background-color: #efefef&quot;&gt;&amp;gt;&lt;/span&gt;1.0.0-SNAPSHOT&lt;span style=&quot;background-color: #efefef&quot;&gt;&amp;lt;/&lt;/span&gt;&lt;span style=&quot;color: #000080 ; background-color: #efefef ; font-weight: bold&quot;&gt;imooc.security.version&lt;/span&gt;&lt;span style=&quot;background-color: #efefef&quot;&gt;&amp;gt;&lt;/span&gt;&lt;br&gt;&lt;span style=&quot;background-color: #efefef&quot;&gt;&amp;lt;/&lt;/span&gt;&lt;span style=&quot;color: #000080 ; background-color: #efefef ; font-weight: bold&quot;&gt;properties&lt;/span&gt;&lt;span style=&quot;background-color: #efefef&quot;&gt;&amp;gt;&lt;/span&gt;&lt;/pre&gt;&lt;pre style=&quot;font-family: &amp;#34;jetbrains mono&amp;#34; , monospace ; font-size: 9.8pt&quot;&gt;&lt;pre style=&quot;font-family: &amp;#34;jetbrains mono&amp;#34; , monospace ; font-size: 9.8pt&quot;&gt;&lt;span style=&quot;background-color: #efefef&quot;&gt;&amp;lt;&lt;/span&gt;&lt;span style=&quot;color: #000080 ; background-color: #efefef ; font-weight: bold&quot;&gt;dependencyManagement&lt;/span&gt;&lt;span style=&quot;background-color: #efefef&quot;&gt;&amp;gt;&lt;/span&gt;platform-bom spring-cloud-dependencies&amp;lt;/&lt;span style=&quot;font-size: 9.8pt ; color: rgb(0 , 0 , 128) ; background-color: rgb(239 , 239 , 239) ; font-weight: bold&quot;&gt;dependencyManagement&lt;/span&gt;&lt;span style=&quot;font-size: 9.8pt ; background-color: rgb(239 , 239 , 239)&quot;&gt;&amp;gt;&lt;/span&gt;&lt;/pre&gt;&lt;pre style=&quot;font-family: &amp;#34;jetbrains mono&amp;#34; , monospace ; font-size: 9.8pt&quot;&gt;&lt;span style=&quot;background-color: #efefef&quot;&gt;&amp;lt;&lt;/span&gt;&lt;span style=&quot;color: #000080 ; background-color: #efefef ; font-weight: bold&quot;&gt;build&lt;/span&gt;&lt;span style=&quot;background-color: #efefef&quot;&gt;&amp;gt;&lt;/span&gt;maven-compiler-plugin&amp;lt;/&lt;span style=&quot;font-size: 9.8pt ; color: rgb(0 , 0 , 128) ; background-color: rgb(239 , 239 , 239) ; font-weight: bold&quot;&gt;build&lt;/span&gt;&lt;span style=&quot;font-size: 9.8pt ; background-color: rgb(239 , 239 , 239)&quot;&gt;&amp;gt;&lt;/span&gt;&lt;/pre&gt;&lt;/pre&gt;&lt;/pre&gt;&lt;pre style=&quot;font-family: &amp;#34;jetbrains mono&amp;#34; , monospace ; font-size: 9.8pt&quot;&gt;&lt;span style=&quot;background-color: #efefef&quot;&gt;&lt;br&gt;&lt;/span&gt;&lt;/pre&gt;&lt;/pre&gt;" style="rounded=0;whiteSpace=wrap;html=1;" vertex="1" parent="1">
          <mxGeometry x="350" y="20" width="630" height="260" as="geometry" />
        </mxCell>
        <mxCell id="-o3gMdgeUypH5bBFZFpi-16" value="" style="edgeStyle=orthogonalEdgeStyle;rounded=0;orthogonalLoop=1;jettySize=auto;html=1;" edge="1" parent="1" source="-o3gMdgeUypH5bBFZFpi-3" target="-o3gMdgeUypH5bBFZFpi-2">
          <mxGeometry relative="1" as="geometry">
            <Array as="points">
              <mxPoint x="590" y="320" />
              <mxPoint x="665" y="320" />
            </Array>
          </mxGeometry>
        </mxCell>
        <mxCell id="-o3gMdgeUypH5bBFZFpi-19" value="" style="edgeStyle=orthogonalEdgeStyle;rounded=0;orthogonalLoop=1;jettySize=auto;html=1;" edge="1" parent="1" source="-o3gMdgeUypH5bBFZFpi-3" target="-o3gMdgeUypH5bBFZFpi-4">
          <mxGeometry relative="1" as="geometry" />
        </mxCell>
        <mxCell id="-o3gMdgeUypH5bBFZFpi-3" value="app" style="whiteSpace=wrap;html=1;aspect=fixed;" vertex="1" parent="1">
          <mxGeometry x="550" y="370" width="80" height="80" as="geometry" />
        </mxCell>
        <mxCell id="-o3gMdgeUypH5bBFZFpi-15" value="" style="edgeStyle=orthogonalEdgeStyle;rounded=0;orthogonalLoop=1;jettySize=auto;html=1;" edge="1" parent="1" source="-o3gMdgeUypH5bBFZFpi-4" target="-o3gMdgeUypH5bBFZFpi-2">
          <mxGeometry relative="1" as="geometry" />
        </mxCell>
        <mxCell id="-o3gMdgeUypH5bBFZFpi-4" value="core&lt;br&gt;core package" style="whiteSpace=wrap;html=1;aspect=fixed;" vertex="1" parent="1">
          <mxGeometry x="374" y="360" width="100" height="100" as="geometry" />
        </mxCell>
        <mxCell id="-o3gMdgeUypH5bBFZFpi-17" value="" style="edgeStyle=orthogonalEdgeStyle;rounded=0;orthogonalLoop=1;jettySize=auto;html=1;" edge="1" parent="1" source="-o3gMdgeUypH5bBFZFpi-5" target="-o3gMdgeUypH5bBFZFpi-2">
          <mxGeometry relative="1" as="geometry">
            <Array as="points">
              <mxPoint x="710" y="320" />
              <mxPoint x="665" y="320" />
            </Array>
          </mxGeometry>
        </mxCell>
        <mxCell id="-o3gMdgeUypH5bBFZFpi-22" value="" style="edgeStyle=orthogonalEdgeStyle;rounded=0;orthogonalLoop=1;jettySize=auto;html=1;entryX=0.667;entryY=1.037;entryDx=0;entryDy=0;entryPerimeter=0;" edge="1" parent="1" source="-o3gMdgeUypH5bBFZFpi-5" target="-o3gMdgeUypH5bBFZFpi-4">
          <mxGeometry relative="1" as="geometry">
            <Array as="points">
              <mxPoint x="441" y="510" />
            </Array>
          </mxGeometry>
        </mxCell>
        <mxCell id="-o3gMdgeUypH5bBFZFpi-5" value="browser&lt;br&gt;&lt;pre style=&quot;background-color: rgb(255 , 255 , 255) ; font-family: &amp;#34;jetbrains mono&amp;#34; , monospace ; font-size: 9.8pt&quot;&gt;spring-session&lt;/pre&gt;" style="whiteSpace=wrap;html=1;aspect=fixed;" vertex="1" parent="1">
          <mxGeometry x="670" y="460" width="100" height="100" as="geometry" />
        </mxCell>
        <mxCell id="-o3gMdgeUypH5bBFZFpi-18" value="" style="edgeStyle=orthogonalEdgeStyle;rounded=0;orthogonalLoop=1;jettySize=auto;html=1;" edge="1" parent="1" source="-o3gMdgeUypH5bBFZFpi-8" target="-o3gMdgeUypH5bBFZFpi-2">
          <mxGeometry relative="1" as="geometry">
            <Array as="points">
              <mxPoint x="940" y="320" />
              <mxPoint x="665" y="320" />
            </Array>
          </mxGeometry>
        </mxCell>
        <mxCell id="-o3gMdgeUypH5bBFZFpi-23" style="edgeStyle=orthogonalEdgeStyle;rounded=0;orthogonalLoop=1;jettySize=auto;html=1;" edge="1" parent="1" source="-o3gMdgeUypH5bBFZFpi-8" target="-o3gMdgeUypH5bBFZFpi-5">
          <mxGeometry relative="1" as="geometry" />
        </mxCell>
        <mxCell id="-o3gMdgeUypH5bBFZFpi-8" value="demo&lt;br&gt;&lt;pre style=&quot;background-color: rgb(255 , 255 , 255) ; font-family: &amp;#34;jetbrains mono&amp;#34; , monospace ; font-size: 9.8pt&quot;&gt;spring-boot-maven-plugin&lt;/pre&gt;" style="whiteSpace=wrap;html=1;aspect=fixed;" vertex="1" parent="1">
          <mxGeometry x="900" y="470" width="80" height="80" as="geometry" />
        </mxCell>
      </root>
    </mxGraphModel>
  </diagram>
</mxfile>
